<?xml version="1.0" encoding="UTF-8" standalone="no"?>
<!-- Created with Inkscape (http://www.inkscape.org/) -->

<svg
   xmlns:dc="http://purl.org/dc/elements/1.1/"
   xmlns:cc="http://creativecommons.org/ns#"
   xmlns:rdf="http://www.w3.org/1999/02/22-rdf-syntax-ns#"
   xmlns:svg="http://www.w3.org/2000/svg"
   xmlns="http://www.w3.org/2000/svg"
   xmlns:sodipodi="http://sodipodi.sourceforge.net/DTD/sodipodi-0.dtd"
   xmlns:inkscape="http://www.inkscape.org/namespaces/inkscape"
   width="360.01001mm"
   height="360mm"
   viewBox="0 0 360.01001 360"
   version="1.1"
   id="svg8"
   inkscape:version="0.92.4 (5da689c313, 2019-01-14)"
   sodipodi:docname="dessin.svg">
  <defs
     id="defs2" />
  <sodipodi:namedview
     id="base"
     pagecolor="#ffffff"
     bordercolor="#666666"
     borderopacity="1.0"
     inkscape:pageopacity="0.0"
     inkscape:pageshadow="2"
     inkscape:zoom="0.35"
     inkscape:cx="-1132.126"
     inkscape:cy="1070.2362"
     inkscape:document-units="mm"
     inkscape:current-layer="layer1"
     showgrid="false"
     inkscape:window-width="1920"
     inkscape:window-height="1001"
     inkscape:window-x="-9"
     inkscape:window-y="-9"
     inkscape:window-maximized="1"
     fit-margin-top="0"
     fit-margin-left="0"
     fit-margin-right="0"
     fit-margin-bottom="0" />
  <metadata
     id="metadata5">
    <rdf:RDF>
      <cc:Work
         rdf:about="">
        <dc:format>image/svg+xml</dc:format>
        <dc:type
           rdf:resource="http://purl.org/dc/dcmitype/StillImage" />
        <dc:title></dc:title>
      </cc:Work>
    </rdf:RDF>
  </metadata>
  <g
     inkscape:label="Calque 1"
     inkscape:groupmode="layer"
     id="layer1"
     transform="translate(-72,-72)">
    <path
       d="M237.18 140.67c0-45.2 14.82-59.86 14.82-59.86s14.82 14.67 14.82 59.86c0 45.2-11.52 55-14.82 55s-14.82-9.8-14.82-55zm-55.24 107.71c1.02-3.13-4.75-17.12-47.73-31.09-42.98-13.97-61.51-4.41-61.51-4.41s9.37 18.62 52.35 32.59 55.87 6.04 56.89 2.91zm25.9 83.21c-2.66-1.94-17.75-.77-44.32 35.79s-23.2 57.14-23.2 57.14 20.61-3.16 47.17-39.72c26.57-36.57 23.01-51.28 20.35-53.21zm153.64-46.32c22.25 30.63 19.56 71.86-4.17 99.36-1.27-2.39-2.69-4.87-4.25-7.45 19.65-24.7 21.36-60.45 1.93-87.2-9.03-12.43-21.33-21.1-34.86-25.74 10.14 5.17 19.13 12.86 26.22 22.62 18.27 25.15 16.97 54.96-1.76 77.6-.01-.02-.02-.03-.03-.04-.6-.83-1.2-1.63-1.79-2.42 17.26-21.24 18.83-49.02 1.15-73.36-12.27-16.88-29.81-26.46-47.91-28.16 14.13 2.84 27.42 11.04 36.91 24.1 15.07 20.75 14.47 45.94.04 65.18-.68-.78-1.35-1.53-2.01-2.27 13.52-18.31 13.6-41.78-.47-61.14-10.52-14.47-25.93-22.68-41.79-23.83 11.82 2.22 22.93 8.94 30.8 19.77 12.41 17.08 12.05 38.35.53 54.44-.79-.68-1.57-1.33-2.33-1.93 10.64-15.04 10.92-34.84-.64-50.74-8.88-12.23-22.14-18.89-35.7-19.31 9.58 1.6 18.56 6.79 24.7 15.25 10.53 14.49 9.4 33.94-1.6 47.1-1.16-.39-2.24-.67-3.26-.84 11.01-12.12 12.42-30.73 2.42-44.49-10.37-14.27-29.5-18.48-44.72-10.63 31.8 26.77 37.99 74.11 13.18 108.26-22.25 30.63-62.3 40.81-95.79 26.74 1.88-1.95 3.8-4.06 5.77-6.35 29.56 11.05 64.09 1.64 83.52-25.11 9.03-12.43 13.48-26.8 13.7-41.11-1.78 11.24-6.32 22.17-13.41 31.92-18.27 25.15-47.03 33.12-74.35 22.3.01-.02.02-.03.03-.04.6-.83 1.18-1.64 1.75-2.45 25.53 9.86 52.44 2.76 70.13-21.57 12.27-16.88 15.95-36.53 11.98-54.26 1.67 14.32-2.02 29.49-11.51 42.55-15.07 20.75-39.21 27.96-61.98 20.18.53-.89 1.04-1.75 1.54-2.61 21.59 7.2 43.94.02 58.01-19.34 10.52-14.47 13.56-31.66 9.75-47.11 1.55 11.93-1.42 24.57-9.29 35.4-12.41 17.08-32.75 23.32-51.61 17.33.4-.96.77-1.91 1.11-2.82 17.59 5.47 36.51-.38 48.06-16.29 8.88-12.23 11.12-26.9 7.34-39.92 1.44 9.6-.73 19.75-6.87 28.21-10.53 14.49-29.38 19.42-45.29 13.03.01-1.22-.06-2.34-.21-3.36 14.93 6.73 33.07 2.31 43.06-11.44 10.02-13.79 8.57-32.45-2.5-44.56-15.79 38.22-58.72 58.52-98.7 45.53-36-11.7-58.07-46.64-55.03-82.84 2.43 1.18 5.04 2.36 7.82 3.52-1.38 31.53 18.25 61.46 49.69 71.68 14.61 4.75 29.66 4.54 43.33.33-11.24 1.78-23.04.84-34.51-2.89-29.56-9.6-46.03-34.49-44.18-63.82.02.01.03.01.05.02.98.32 1.92.61 2.87.91-1.48 27.33 13.58 50.73 42.19 60.03 19.85 6.45 39.67 3.88 55.31-5.37-13.1 6.01-28.67 7.19-44.03 2.2-24.39-7.92-38.71-28.66-38.35-52.71 1.01.23 1.99.45 2.96.65-.17 22.76 13.55 41.79 36.32 49.19 17.02 5.53 34.3 3.11 47.82-5.28-10.87 5.16-23.8 6.24-36.54 2.1-20.08-6.52-32.3-23.94-32.43-43.73 1.04.08 2.05.15 3.02.19.23 18.42 11.65 34.6 30.34 40.68 14.38 4.67 29.02 2.27 40.23-5.36-8.69 4.34-19.01 5.41-28.95 2.18-17.03-5.53-27.55-21.94-26.39-39.05 1.17-.37 2.21-.78 3.13-1.23-1.78 16.27 8.02 32.16 24.19 37.42 17.02 5.53 35.23-2.62 42.75-18.34-42.27-2.12-76.01-37.18-76.01-79.96 0-37.86 26.42-69.64 61.78-77.93-.37 2.68-.69 5.52-.94 8.52-30.41 8.43-52.81 36.35-52.81 69.41 0 15.36 4.85 29.61 13.08 41.31-5.16-10.14-7.92-21.65-7.92-33.71 0-31.08 18.58-54.44 47.04-61.74v.06c0 1.03.01 2.02.03 3.01-26.45 7.03-44.05 28.59-44.05 58.67 0 20.87 8.56 38.93 22.2 50.94-9.76-10.61-15.7-25.05-15.7-41.2 0-25.64 15.29-45.67 38.28-52.76.09 1.03.19 2.03.29 3.02-21.7 6.87-35.56 25.81-35.56 49.74 0 17.89 7.64 33.58 19.8 43.84-8.26-8.74-13.29-20.71-13.29-34.1 0-21.11 12.79-38.11 31.57-44.36.24 1.01.49 2 .76 2.93-17.45 5.91-29.31 21.77-29.31 41.43 0 15.12 6.81 28.3 17.53 36.6-6.81-6.92-11.02-16.41-11.02-26.86 0-17.91 12.35-32.98 28.98-37.16.71 1 1.42 1.86 2.14 2.6-16.03 3.33-28.11 17.57-28.11 34.57 0 17.64 13 32.28 29.93 34.89-9.99-40.35 12.83-82.28 52.97-95.33 36-11.7 74.39 3.61 93.21 34.67-2.66.47-5.46 1.05-8.4 1.74-17.42-26.32-50.89-39-82.33-28.78-14.61 4.75-26.66 13.76-35.25 25.2 8.05-8.04 18.15-14.22 29.61-17.95 29.56-9.6 57.51.85 73.26 25.66-.02.01-.03.01-.05.02-.98.32-1.92.64-2.86.96-14.86-22.98-40.8-33.06-69.42-23.77-19.85 6.45-34.38 20.17-41.59 36.86 7.07-12.56 18.97-22.67 34.33-27.66 24.39-7.92 48.16.43 62.01 20.1-.95.4-1.88.81-2.78 1.21-13.23-18.51-35.53-25.84-58.3-18.45-17.02 5.53-29.58 17.65-35.58 32.38 5.76-10.56 15.59-19.04 28.32-23.18 20.08-6.52 40.2.39 51.94 16.31-.89.54-1.75 1.09-2.55 1.63-11.01-14.77-29.76-21.15-48.46-15.07-14.38 4.67-24.81 15.22-29.4 27.98 4.48-8.61 12.2-15.55 22.14-18.78 17.03-5.53 35.19 1.55 44.3 16.08-.73.98-1.33 1.93-1.81 2.84-8.12-14.21-25.39-21.31-41.56-16.05-16.78 5.45-26.69 22.34-23.93 39.24 35.3-21.97 82.24-13.23 107.05 20.92zm-65.32 46.32c-2.66 1.94-6.22 16.64 20.34 53.21s47.17 39.72 47.17 39.72 3.37-20.57-23.2-57.14c-26.56-36.57-41.65-37.73-44.31-35.79zm75.03-115.09c-42.98 13.97-48.75 27.96-47.73 31.09 1.02 3.13 13.91 11.06 56.89-2.91s52.35-32.59 52.35-32.59-18.53-9.56-61.51 4.41z"
       id="path5"
       inkscape:connector-curvature="0" />
  </g>
</svg>
