<?xml version="1.0" encoding="UTF-8" standalone="no"?>
<!-- Created with Inkscape (http://www.inkscape.org/) -->

<svg
   xmlns:dc="http://purl.org/dc/elements/1.1/"
   xmlns:cc="http://creativecommons.org/ns#"
   xmlns:rdf="http://www.w3.org/1999/02/22-rdf-syntax-ns#"
   xmlns:svg="http://www.w3.org/2000/svg"
   xmlns="http://www.w3.org/2000/svg"
   xmlns:sodipodi="http://sodipodi.sourceforge.net/DTD/sodipodi-0.dtd"
   xmlns:inkscape="http://www.inkscape.org/namespaces/inkscape"
   width="360.01001mm"
   height="360mm"
   viewBox="0 0 360.01001 360"
   version="1.1"
   id="svg8"
   inkscape:version="0.92.4 (5da689c313, 2019-01-14)"
   sodipodi:docname="dessin.svg">
  <defs
     id="defs2" />
  <sodipodi:namedview
     id="base"
     pagecolor="#ffffff"
     bordercolor="#666666"
     borderopacity="1.0"
     inkscape:pageopacity="0.0"
     inkscape:pageshadow="2"
     inkscape:zoom="0.35"
     inkscape:cx="-1132.126"
     inkscape:cy="1070.2362"
     inkscape:document-units="mm"
     inkscape:current-layer="layer1"
     showgrid="false"
     inkscape:window-width="1920"
     inkscape:window-height="1001"
     inkscape:window-x="-9"
     inkscape:window-y="-9"
     inkscape:window-maximized="1"
     fit-margin-top="0"
     fit-margin-left="0"
     fit-margin-right="0"
     fit-margin-bottom="0" />
  <metadata
     id="metadata5">
    <rdf:RDF>
      <cc:Work
         rdf:about="">
        <dc:format>image/svg+xml</dc:format>
        <dc:type
           rdf:resource="http://purl.org/dc/dcmitype/StillImage" />
        <dc:title></dc:title>
      </cc:Work>
    </rdf:RDF>
  </metadata>
  <g
     inkscape:label="Calque 1"
     inkscape:groupmode="layer"
     id="layer1"
     transform="translate(-72,-72)">
    <path
       d="M116.04 184.51c0-3.87 3.13-7 7-7s7 3.13 7 7-3.13 7-7 7-7-3.13-7-7zm62.02-78.34c-3.87 0-7 3.13-7 7s3.13 7 7 7 7-3.13 7-7-3.14-7-7-7zm148.41 48.43c3.87 0 7-3.13 7-7s-3.13-7-7-7-7 3.13-7 7 3.13 7 7 7zM146.69 272.08c0-.21.01-.43.01-.66.16-14.6-9.42-25.06-18.38-28.73-1.23-.5-1.01-2.38.3-2.54 2.86-.37 13.08.02 16.49-.66 10.12-2.02 17.11-9.2 19.25-17.11 2.43-8.98 14.13-8.85 15.42 4.19.92 9.36 9.79 15.19 14.7 16.06 4.78.85 7.76-.43 10.47-.44 4.34-.01 7.81 3.88 7.36 8.48-.38 3.96-3.76 6.87-7.58 6.91-5.56.05-11.09-.91-18.57-1.39-13.92-.88-28.9 5.65-36.47 16.89-.94 1.38-3.03.69-3-1zm17.59-31.13c0 3.87 3.13 7 7 7s7-3.13 7-7-3.13-7-7-7-7 3.14-7 7zm-69.62 51.84c-3.87 0-7 3.13-7 7s3.13 7 7 7 7-3.13 7-7c0-3.86-3.13-7-7-7zm.16-111.99c4-4.07 4.27-4.4 9.06-9.28 7.83-7.97 12.31-9.8 17.2-9.8.89 0 1.8.06 2.74.16 7.43.75 12.29 7.48 16.57 16.5 6.67 14.06-5.82 24.27-16.46 24.27-1.67 0-3.3-.25-4.81-.78-1.63-.58-3.16-.82-4.63-.82-8.62 0-14.62 8.54-21.14 8.54-1.97 0-3.98-.78-6.13-2.81-8.14-7.73-3.66-14.53 7.6-25.98zm-6.75 17.99c.01.47.03 1.91 2.62 4.35 1.52 1.44 2.37 1.44 2.69 1.44 1.58 0 4.03-1.55 6.4-3.05 3.87-2.45 8.68-5.49 14.74-5.49 2.1 0 4.21.37 6.29 1.11.94.33 1.99.5 3.14.5 4.6 0 9.45-2.59 11.8-6.31 2-3.16 2.05-6.8.14-10.81-4.28-9.01-8.15-13.23-12.56-13.67-.88-.09-1.59-.13-2.24-.13-2.89 0-6.12.63-13.64 8.3-2.4 2.44-3.66 3.74-4.83 4.94-1.17 1.2-2.24 2.31-4.24 4.34-5.39 5.48-10.37 11.03-10.31 14.48zm97.2-32.45c3.87 0 7-3.13 7-7s-3.13-7-7-7-7 3.13-7 7 3.13 7 7 7zm-77.44 165.43c-1.21.3-2.3.45-3.32.45-6.18 0-9.99-5.78-26.52-21.34-4.22-3.97-5.98-8.09-5.99-12.05-.01-12.26 16.87-23 30.3-23 8.68 0 15.93 4.49 16.23 15.96.69 26.04-.39 37.46-10.7 39.98zm-1.19-4.86c2.19-.53 4.44-1.55 5.79-7.43 1.36-5.94 1.43-15.32 1.1-27.56-.2-7.46-3.87-11.09-11.23-11.09-5.51 0-12.13 2.29-17.28 5.97-5.1 3.65-8.02 8.03-8.02 12.02 0 2.83 1.49 5.66 4.41 8.42 4.19 3.94 7.61 7.3 10.36 10 7.55 7.41 10.28 9.98 12.74 9.98.58 0 1.27-.1 2.13-.31zm212.09 10.75c-3.87 0-7 3.13-7 7s3.13 7 7 7 7-3.13 7-7-3.13-7-7-7zm38.58-105.74c0 .21-.01.43-.01.66-.16 14.6 9.42 25.06 18.38 28.73 1.23.5 1.01 2.38-.3 2.54-2.86.37-13.08-.02-16.49.66-10.12 2.02-17.11 9.2-19.25 17.11-2.43 8.98-14.13 8.85-15.42-4.19-.92-9.36-9.79-15.19-14.7-16.06-4.78-.85-7.76.43-10.47.44-4.34.01-7.81-3.88-7.36-8.48.38-3.96 3.76-6.87 7.58-6.91 5.56-.05 11.09.91 18.57 1.39 13.92.88 28.9-5.65 36.47-16.89.94-1.38 3.03-.69 3 1zm-17.59 31.13c0-3.87-3.13-7-7-7s-7 3.13-7 7 3.13 7 7 7 7-3.14 7-7zm41.24 49.44c-3.87 0-7 3.13-7 7s3.13 7 7 7 7-3.13 7-7-3.13-7-7-7zM432 205.17c.01 12.26-16.87 23-30.3 23-8.68 0-15.93-4.49-16.23-15.96-.69-26.04.39-37.46 10.7-39.98 1.21-.3 2.3-.45 3.32-.45 6.18 0 9.99 5.78 26.52 21.34 4.22 3.97 5.99 8.09 5.99 12.05zm-5 .01c0-2.83-1.49-5.66-4.41-8.42-4.19-3.94-7.61-7.3-10.36-10-7.55-7.41-10.28-9.98-12.74-9.98-.58 0-1.27.1-2.13.31-2.19.53-4.44 1.55-5.79 7.43-1.36 5.94-1.43 15.32-1.1 27.56.2 7.46 3.87 11.09 11.23 11.09 5.51 0 12.13-2.29 17.28-5.97 5.1-3.64 8.02-8.03 8.02-12.02zM257.66 252l141.17 141.17-5.66 5.66L246.58 432l-64.27-33.17h-71.48l-5.66-5.66L246.34 252 105.17 110.83l5.66-5.66L257.42 72l64.27 33.17h71.49l5.66 5.66L257.66 252zm27.7-80.46 20.72 20.73 82.09-82.09h-64.86l-37.95 61.36zm-11.62-62.01c0 3.87 3.13 7 7 7s7-3.13 7-7-3.13-7-7-7-7 3.13-7 7zm-63.43 36.99-77.74-19.62 65.93 65.93 11.81-3.34v-42.97zm1.35-4.81 40.07-63.29L115 109.36l10.66 10.66 86 21.69zm3.65 46.37 63.68-18.01L256 81.02l-40.7 64.28v42.78zm43.76-54.55c0 3.87-3.17 7-7.07 7-3.9 0-7.07-3.13-7.07-7s3.17-7 7.07-7c3.9 0 7.07 3.13 7.07 7zm-14.14 236.94c0-3.87 3.17-7 7.07-7 3.9 0 7.07 3.13 7.07 7s-3.17 7-7.07 7c-3.9 0-7.07-3.13-7.07-7zM252 219.31c3.87 0 7-3.13 7-7s-3.13-7-7-7-7 3.13-7 7c0 3.86 3.13 7 7 7zm-67.31 168.05 33.95-54.9-20.72-20.72-82.09 82.09h64.86l4-6.47zm45.57 7.11c0-3.87-3.13-7-7-7s-7 3.13-7 7 3.13 7 7 7 7-3.13 7-7zm63.43-36.99 77.75 19.62-65.93-65.93-11.81 3.34v42.97zm-1.35 4.81-40.07 63.29L389 394.64l-10.66-10.66-86-21.69zm-3.65-46.37-63.68 18.01L248 422.98l40.7-64.28v-42.78zM252 284.69c-3.87 0-7 3.13-7 7s3.13 7 7 7 7-3.13 7-7-3.13-7-7-7zm164.75 12.53c-2.14-2.03-4.16-2.81-6.13-2.81v5c.32 0 1.17 0 2.69 1.44 2.58 2.44 2.61 3.88 2.62 4.35.06 3.45-4.92 9-10.31 14.48-2 2.04-3.07 3.14-4.24 4.34-1.17 1.2-2.43 2.5-4.83 4.94-7.52 7.66-10.74 8.3-13.64 8.3-.65 0-1.36-.04-2.24-.13-4.41-.44-8.28-4.66-12.56-13.67-1.9-4.01-1.86-7.65.14-10.81 2.35-3.72 7.2-6.31 11.8-6.31 1.15 0 2.21.17 3.14.5 2.08.73 4.19 1.11 6.29 1.11 6.06 0 10.87-3.05 14.74-5.49 2.37-1.5 4.82-3.05 6.4-3.05v-5c-6.51 0-12.52 8.54-21.13 8.54-1.46 0-3-.25-4.63-.82-1.5-.53-3.13-.78-4.81-.78-10.64 0-23.13 10.2-16.46 24.27 4.28 9.03 9.14 15.76 16.57 16.5.94.09 1.85.16 2.74.16 4.9 0 9.38-1.82 17.2-9.8 4.79-4.88 5.06-5.21 9.06-9.28 11.28-11.45 15.76-18.25 7.59-25.98zm-7.41-100.01c-3.87 0-7 3.13-7 7s3.13 7 7 7 7-3.13 7-7-3.14-7-7-7zM177.53 349.4c-3.87 0-7 3.13-7 7s3.13 7 7 7 7-3.13 7-7-3.13-7-7-7zm148.41 48.43c3.87 0 7-3.13 7-7s-3.13-7-7-7-7 3.13-7 7 3.14 7 7 7z"
       id="path5"
       inkscape:connector-curvature="0" />
  </g>
</svg>
