<?xml version="1.0" encoding="UTF-8" standalone="no"?>
<!-- Created with Inkscape (http://www.inkscape.org/) -->

<svg
   xmlns:dc="http://purl.org/dc/elements/1.1/"
   xmlns:cc="http://creativecommons.org/ns#"
   xmlns:rdf="http://www.w3.org/1999/02/22-rdf-syntax-ns#"
   xmlns:svg="http://www.w3.org/2000/svg"
   xmlns="http://www.w3.org/2000/svg"
   xmlns:sodipodi="http://sodipodi.sourceforge.net/DTD/sodipodi-0.dtd"
   xmlns:inkscape="http://www.inkscape.org/namespaces/inkscape"
   width="360.01001mm"
   height="360mm"
   viewBox="0 0 360.01001 360"
   version="1.1"
   id="svg8"
   inkscape:version="0.92.4 (5da689c313, 2019-01-14)"
   sodipodi:docname="dessin.svg">
  <defs
     id="defs2" />
  <sodipodi:namedview
     id="base"
     pagecolor="#ffffff"
     bordercolor="#666666"
     borderopacity="1.0"
     inkscape:pageopacity="0.0"
     inkscape:pageshadow="2"
     inkscape:zoom="0.35"
     inkscape:cx="-1132.126"
     inkscape:cy="1070.2362"
     inkscape:document-units="mm"
     inkscape:current-layer="layer1"
     showgrid="false"
     inkscape:window-width="1920"
     inkscape:window-height="1001"
     inkscape:window-x="-9"
     inkscape:window-y="-9"
     inkscape:window-maximized="1"
     fit-margin-top="0"
     fit-margin-left="0"
     fit-margin-right="0"
     fit-margin-bottom="0" />
  <metadata
     id="metadata5">
    <rdf:RDF>
      <cc:Work
         rdf:about="">
        <dc:format>image/svg+xml</dc:format>
        <dc:type
           rdf:resource="http://purl.org/dc/dcmitype/StillImage" />
        <dc:title></dc:title>
      </cc:Work>
    </rdf:RDF>
  </metadata>
  <g
     inkscape:label="Calque 1"
     inkscape:groupmode="layer"
     id="layer1"
     transform="translate(-72,-72)">
    <path
       d="m245.58 156.38 3.21 5.56h6.42l3.21-5.56-3.21-5.56h-6.42l-3.21 5.56zm6.42-3.15a3.15 3.15 0 1 1 0 6.3 3.15 3.15 0 0 1 0-6.3zm-13.94 3.15c0 7.69 6.25 13.94 13.94 13.94 7.69 0 13.94-6.25 13.94-13.94s-6.25-13.94-13.94-13.94c-7.69-.01-13.94 6.25-13.94 13.94zm22.88 0c0 4.93-4.01 8.94-8.94 8.94s-8.94-4.01-8.94-8.94 4.01-8.94 8.94-8.94c4.93-.01 8.94 4.01 8.94 8.94zm98.39 215.68 14.07 14.07c-7.61-4.85-15.74-7.12-25.49-7.12-10.08 0-18.43 2.42-26.26 7.61-7.08 4.69-12.73 10.95-18.73 17.57-6.06 6.7-12.32 13.62-20.24 18.87-9.08 6.01-19.11 8.94-30.68 8.94s-21.6-2.93-30.68-8.95c-7.92-5.25-14.18-12.17-20.24-18.87-5.99-6.62-11.65-12.88-18.73-17.57-7.84-5.2-16.18-7.61-26.26-7.61-9.75 0-17.87 2.27-25.48 7.11l14.06-14.06c3.64-.7 7.44-1.06 11.42-1.06 11.57 0 21.6 2.93 30.68 8.95 7.91 5.25 14.18 12.17 20.24 18.86 5.99 6.62 11.65 12.88 18.73 17.57 7.84 5.2 16.18 7.61 26.26 7.61 10.08 0 18.43-2.42 26.26-7.61 7.08-4.69 12.74-10.95 18.73-17.57 6.06-6.7 12.32-13.62 20.24-18.87 9.08-6.02 19.12-8.95 30.68-8.95 3.98.02 7.78.38 11.42 1.08zM187.03 109v8.94l-39.32 17.04 3.8 3.8L252 95.24l100.65 43.38 3.8-3.8-39.49-17.02v-8.88l45.6 19.79 6.08-6.08L252 72l-116.54 50.73 6.08 6.08L187.03 109zm67.47-27.19 57.47 24.93v8.9L254.5 90.87v-9.06zm-62.47 25.02 57.47-25.02v9.06l-57.47 24.9v-8.94zm24.43 49.55c0 19.6 15.94 35.54 35.54 35.54s35.54-15.94 35.54-35.54-15.94-35.54-35.54-35.54-35.54 15.94-35.54 35.54zm66.08 0c0 16.84-13.7 30.54-30.54 30.54s-30.54-13.7-30.54-30.54 13.7-30.54 30.54-30.54 30.54 13.7 30.54 30.54zM252 361.57c7.69 0 13.94-6.25 13.94-13.94s-6.25-13.94-13.94-13.94c-7.69 0-13.94 6.25-13.94 13.94s6.25 13.94 13.94 13.94zm0-22.89c4.93 0 8.94 4.01 8.94 8.94s-4.01 8.94-8.94 8.94-8.94-4.01-8.94-8.94 4.01-8.94 8.94-8.94zm180-105.33c.01-11.7-4.64-24.01-13.75-33.9l-3.23-3.23c-18.54-17.07-45.57-18.5-61.19-2.87l-77.41 77.41L257.66 252l141.17-141.17-5.66-5.66L252 246.34 110.83 105.17l-5.66 5.66 55.12 55.12-77.41 77.41c-7.29 7.29-10.87 17.06-10.88 27.29-.01 11.7 4.64 24.01 13.75 33.9l3.23 3.23c18.54 17.07 45.57 18.5 61.19 2.87l77.41-77.41L246.34 252 105.17 393.17l5.66 5.66L252 257.66l141.17 141.17 5.66-5.66-55.12-55.12 77.41-77.41c7.29-7.29 10.87-17.06 10.88-27.29zm-298.55 14.27c-1.66 0-3-1.34-3-3s1.34-3 3-3 3 1.34 3 3-1.34 3-3 3zm15.46 15.46c-1.66 0-3-1.34-3-3s1.34-3 3-3 3 1.34 3 3-1.34 3-3 3zm.49-31.41c-1.66 0-3-1.34-3-3s1.34-3 3-3 3 1.34 3 3-1.35 3-3 3zm15.46 15.47c-1.66 0-3-1.34-3-3s1.34-3 3-3 3 1.34 3 3-1.34 3-3 3zm174.28 15.72c-1.66 0-3-1.34-3-3s1.34-3 3-3 3 1.34 3 3-1.34 3-3 3zm15.46 15.47c-1.66 0-3-1.34-3-3s1.34-3 3-3 3 1.34 3 3-1.34 3-3 3zm.48-31.41c-1.66 0-3-1.34-3-3s1.34-3 3-3 3 1.34 3 3-1.34 3-3 3zm15.47 15.46c-1.66 0-3-1.34-3-3s1.34-3 3-3 3 1.34 3 3-1.35 3-3 3zM252 383.16c19.6 0 35.54-15.94 35.54-35.54S271.6 312.08 252 312.08s-35.54 15.94-35.54 35.54 15.94 35.54 35.54 35.54zm0-66.08c16.84 0 30.54 13.7 30.54 30.54s-13.7 30.54-30.54 30.54-30.54-13.7-30.54-30.54 13.7-30.54 30.54-30.54zm3.21 36.11 3.21-5.56-3.21-5.56h-6.42l-3.21 5.56 3.21 5.56h6.42zm-3.21-8.72a3.15 3.15 0 1 1 0 6.3 3.15 3.15 0 0 1 0-6.3z"
       id="path5"
       inkscape:connector-curvature="0" />
  </g>
</svg>
