<?xml version="1.0" encoding="UTF-8" standalone="no"?>
<!-- Created with Inkscape (http://www.inkscape.org/) -->

<svg
   xmlns:dc="http://purl.org/dc/elements/1.1/"
   xmlns:cc="http://creativecommons.org/ns#"
   xmlns:rdf="http://www.w3.org/1999/02/22-rdf-syntax-ns#"
   xmlns:svg="http://www.w3.org/2000/svg"
   xmlns="http://www.w3.org/2000/svg"
   xmlns:sodipodi="http://sodipodi.sourceforge.net/DTD/sodipodi-0.dtd"
   xmlns:inkscape="http://www.inkscape.org/namespaces/inkscape"
   width="360.01001mm"
   height="360mm"
   viewBox="0 0 360.01001 360"
   version="1.1"
   id="svg8"
   inkscape:version="0.92.4 (5da689c313, 2019-01-14)"
   sodipodi:docname="dessin.svg">
  <defs
     id="defs2" />
  <sodipodi:namedview
     id="base"
     pagecolor="#ffffff"
     bordercolor="#666666"
     borderopacity="1.0"
     inkscape:pageopacity="0.0"
     inkscape:pageshadow="2"
     inkscape:zoom="0.35"
     inkscape:cx="-1132.126"
     inkscape:cy="1070.2362"
     inkscape:document-units="mm"
     inkscape:current-layer="layer1"
     showgrid="false"
     inkscape:window-width="1920"
     inkscape:window-height="1001"
     inkscape:window-x="-9"
     inkscape:window-y="-9"
     inkscape:window-maximized="1"
     fit-margin-top="0"
     fit-margin-left="0"
     fit-margin-right="0"
     fit-margin-bottom="0" />
  <metadata
     id="metadata5">
    <rdf:RDF>
      <cc:Work
         rdf:about="">
        <dc:format>image/svg+xml</dc:format>
        <dc:type
           rdf:resource="http://purl.org/dc/dcmitype/StillImage" />
        <dc:title></dc:title>
      </cc:Work>
    </rdf:RDF>
  </metadata>
  <g
     inkscape:label="Calque 1"
     inkscape:groupmode="layer"
     id="layer1"
     transform="translate(-72,-72)">
    <path
       d="M 140.53,171.35 239.88,72 l 3.54,3.54 -104.91,104.91 c 0.99,-2.88 1.68,-5.92 2.02,-9.1 z m 21.54,-59.71 36.1,-36.1 -3.54,-3.54 -35.9,35.9 c 1.46,1.15 2.57,2.39 3.34,3.74 z m -35.61,57.12 c 1.76,-24.72 5.54,-32.96 13.9,-43.1 4.86,-5.9 8.01,-12.76 9.3,-17.71 -0.23,-0.11 -0.47,-0.22 -0.72,-0.33 -8.88,-3.91 -16.65,-6.51 -22.58,-7.69 -6.35,-1.25 -9.53,-1.6 -11.37,0.45 10.47,13.44 1.19,31.93 -15.54,33.31 0,0 0.36,3.66 0.73,9.03 L 111.39,137 c 1.23,-0.63 2.73,-0.14 3.36,1.09 0.63,1.23 0.14,2.74 -1.09,3.36 l -13.14,6.71 c 0.07,1.32 0.14,2.69 0.21,4.09 l 8.84,-4.52 c 1.23,-0.63 2.73,-0.14 3.36,1.09 0.63,1.23 0.14,2.74 -1.09,3.36 l -10.92,5.58 c 0.04,1.38 0.06,2.77 0.08,4.16 l 6.75,-3.45 c 1.23,-0.63 2.73,-0.14 3.36,1.09 0.63,1.23 0.14,2.74 -1.09,3.36 l -9.05,4.62 c -0.01,0.62 -0.03,1.24 -0.05,1.85 -0.03,0.83 -0.09,1.64 -0.16,2.45 l 5.16,-2.64 c 1.23,-0.63 2.73,-0.14 3.36,1.09 0.63,1.23 0.14,2.74 -1.09,3.36 l -8.31,4.24 c -2.34,11.63 -7.84,21.47 -8.62,29 -0.04,0.35 -0.04,0.69 -0.03,1.02 21.68,-10.38 34.17,-24.24 35.23,-39.15 z m 4.99,0.35 c -1.2,16.78 -14.68,32.11 -38.04,43.32 1.32,1.02 3.16,1.4 5.29,0.7 1.08,-0.36 3.57,-1.5 6.77,-3.36 l 2.33,2.65 -1.09,-3.39 c 3.32,-2.01 7.24,-4.72 11.12,-8.09 l 3.15,2.63 -2.06,-3.6 c 3.68,-3.32 7.25,-7.22 10.15,-11.67 l 2.89,1.33 -2.27,-2.28 c 3.22,-5.19 5.51,-11.1 5.99,-17.66 0.47,-6.33 1.27,-11.66 2.27,-16.21 4,-15.38 11.74,-21.16 15.33,-26.38 5.46,-7.95 7.7,-12.16 0.75,-16.38 -1.7,5.63 -5.06,12.35 -9.82,18.12 -7.36,8.94 -11.02,15.83 -12.76,40.27 z m 300.55,2.73 -32.11,32.11 c 0.47,14.48 -2.07,29.04 -7.63,42.65 l 34.09,-34.09 5.66,5.66 -151.56,151.56 c -40.3,40.3 -105.88,40.3 -146.18,0 a 103.035,103.035 0 0 1 -19.52,-27.16 l -37.1,37.1 -5.65,-5.66 39.28,-39.28 c -3.57,-9.04 -5.82,-18.48 -6.75,-28.03 l -29,29 -3.53,-3.54 32.11,-32.11 c -0.47,-14.48 2.07,-29.05 7.63,-42.65 L 77.65,291.49 72,285.82 223.55,134.27 c 40.3,-40.3 105.88,-40.3 146.18,0 8.16,8.16 14.66,17.35 19.52,27.16 l 37.1,-37.1 5.66,5.66 -39.28,39.28 c 3.57,9.04 5.82,18.48 6.75,28.03 l 29,-29 z M 112.16,292 241.98,162.18 c 27.53,-27.53 72.31,-27.53 99.84,0 a 70.19,70.19 0 0 1 17.53,29.15 l 23.89,-23.89 a 94.844,94.844 0 0 0 -19.17,-27.51 c -37.18,-37.18 -97.68,-37.18 -134.86,0 l -89.27,89.27 c -17.42,17.42 -26.68,39.95 -27.78,62.8 z m 215.35,-68.84 27.79,-27.79 a 65.213,65.213 0 0 0 -17.01,-29.66 c -25.58,-25.58 -67.19,-25.58 -92.77,0 l -79.8,79.8 c -14.61,14.61 -20.86,34.46 -18.78,53.56 L 258,188.01 c 15.99,-15.99 42,-15.99 57.99,0 9.56,9.56 13.4,22.71 11.52,35.15 z m -17.18,17.18 0.01,-0.01 c 12.85,-12.87 12.85,-33.8 -0.01,-46.66 -12.87,-12.87 -33.81,-12.87 -46.68,0 l -69.99,69.99 c -12.87,12.87 -12.87,33.81 0,46.68 12.87,12.87 33.81,12.87 46.68,0 z M 148.7,308.62 a 65.213,65.213 0 0 0 17.01,29.66 c 25.58,25.58 67.19,25.58 92.77,0 l 79.8,-79.8 c 14.61,-14.61 20.86,-34.46 18.78,-53.56 L 246,315.99 c -15.99,15.99 -42,15.99 -57.99,0 -9.56,-9.56 -13.4,-22.71 -11.52,-35.15 z m -31.2,19.89 25.01,-25.01 c -2.19,-13.27 -0.6,-27.04 4.79,-39.57 l -35.19,35.19 a 95.55,95.55 0 0 0 5.39,29.39 z M 391.84,212 262.02,341.82 c -27.53,27.53 -72.32,27.53 -99.84,0 a 70.19,70.19 0 0 1 -17.53,-29.15 l -23.89,23.89 a 94.844,94.844 0 0 0 19.17,27.51 c 37.18,37.18 97.68,37.18 134.86,0 l 89.28,-89.27 0.02,-0.02 c 17.4,-17.41 26.65,-39.94 27.75,-62.78 z m 0.06,-7.13 c -0.26,-9.96 -2.04,-19.89 -5.4,-29.38 l -25.01,25.01 c 2.19,13.27 0.6,27.04 -4.79,39.57 z m -26.41,118.68 -104.91,104.91 3.54,3.54 99.35,-99.35 c 0.34,-3.18 1.03,-6.22 2.02,-9.1 z m -23.56,68.81 -36.1,36.1 3.54,3.54 35.9,-35.9 c -1.46,-1.15 -2.57,-2.39 -3.34,-3.74 z m 35.61,-57.12 c -1.76,24.72 -5.54,32.96 -13.9,43.1 -4.86,5.9 -8.01,12.76 -9.3,17.71 0.23,0.11 0.47,0.22 0.72,0.33 8.88,3.91 16.65,6.51 22.58,7.69 6.35,1.25 9.53,1.6 11.37,-0.45 -10.47,-13.44 -1.19,-31.93 15.54,-33.31 0,0 -0.36,-3.66 -0.73,-9.03 L 392.61,367 c -1.23,0.63 -2.73,0.14 -3.36,-1.09 a 2.492,2.492 0 0 1 1.09,-3.36 l 13.14,-6.71 c -0.07,-1.32 -0.14,-2.69 -0.21,-4.09 l -8.84,4.52 c -1.23,0.63 -2.73,0.14 -3.36,-1.09 a 2.492,2.492 0 0 1 1.09,-3.36 l 10.92,-5.58 c -0.04,-1.38 -0.06,-2.77 -0.08,-4.16 l -6.75,3.45 c -1.23,0.63 -2.73,0.14 -3.36,-1.09 a 2.492,2.492 0 0 1 1.09,-3.36 l 9.05,-4.62 c 0.01,-0.62 0.03,-1.24 0.05,-1.85 0.03,-0.83 0.09,-1.64 0.16,-2.45 l -5.16,2.64 c -1.23,0.63 -2.73,0.14 -3.36,-1.09 a 2.492,2.492 0 0 1 1.09,-3.36 l 8.31,-4.24 c 2.34,-11.63 7.84,-21.47 8.62,-29 0.04,-0.35 0.04,-0.69 0.03,-1.02 -21.68,10.38 -34.17,24.24 -35.23,39.15 z m -4.99,-0.35 c 1.2,-16.78 14.68,-32.11 38.04,-43.32 -1.32,-1.02 -3.16,-1.4 -5.29,-0.7 -1.08,0.36 -3.57,1.5 -6.77,3.36 l -2.33,-2.65 1.09,3.39 a 81.594,81.594 0 0 0 -11.12,8.09 l -3.15,-2.63 2.06,3.6 c -3.68,3.32 -7.25,7.22 -10.15,11.67 l -2.89,-1.33 2.27,2.28 c -3.22,5.19 -5.51,11.1 -5.99,17.66 -0.47,6.33 -1.27,11.66 -2.27,16.21 -4,15.38 -11.74,21.16 -15.33,26.38 -5.46,7.95 -7.7,12.16 -0.75,16.38 1.7,-5.63 5.06,-12.35 9.82,-18.12 7.36,-8.94 11.02,-15.83 12.76,-40.27 z"
       id="path5"
       inkscape:connector-curvature="0" />
  </g>
</svg>
