<?xml version="1.0" encoding="UTF-8" standalone="no"?>
<!-- Created with Inkscape (http://www.inkscape.org/) -->

<svg
   xmlns:dc="http://purl.org/dc/elements/1.1/"
   xmlns:cc="http://creativecommons.org/ns#"
   xmlns:rdf="http://www.w3.org/1999/02/22-rdf-syntax-ns#"
   xmlns:svg="http://www.w3.org/2000/svg"
   xmlns="http://www.w3.org/2000/svg"
   xmlns:sodipodi="http://sodipodi.sourceforge.net/DTD/sodipodi-0.dtd"
   xmlns:inkscape="http://www.inkscape.org/namespaces/inkscape"
   width="360.01001mm"
   height="360mm"
   viewBox="0 0 360.01001 360"
   version="1.1"
   id="svg8"
   inkscape:version="0.92.4 (5da689c313, 2019-01-14)"
   sodipodi:docname="dessin.svg">
  <defs
     id="defs2" />
  <sodipodi:namedview
     id="base"
     pagecolor="#ffffff"
     bordercolor="#666666"
     borderopacity="1.0"
     inkscape:pageopacity="0.0"
     inkscape:pageshadow="2"
     inkscape:zoom="0.35"
     inkscape:cx="-1132.126"
     inkscape:cy="1070.2362"
     inkscape:document-units="mm"
     inkscape:current-layer="layer1"
     showgrid="false"
     inkscape:window-width="1920"
     inkscape:window-height="1001"
     inkscape:window-x="-9"
     inkscape:window-y="-9"
     inkscape:window-maximized="1"
     fit-margin-top="0"
     fit-margin-left="0"
     fit-margin-right="0"
     fit-margin-bottom="0" />
  <metadata
     id="metadata5">
    <rdf:RDF>
      <cc:Work
         rdf:about="">
        <dc:format>image/svg+xml</dc:format>
        <dc:type
           rdf:resource="http://purl.org/dc/dcmitype/StillImage" />
        <dc:title></dc:title>
      </cc:Work>
    </rdf:RDF>
  </metadata>
  <g
     inkscape:label="Calque 1"
     inkscape:groupmode="layer"
     id="layer1"
     transform="translate(-72,-72)">
    <path
       d="m237.3 281.01-14.31-14.31 2.41-2.55a6.242 6.242 0 0 1 4.42-1.94 6.24 6.24 0 0 1 4.47 1.81l5.69 5.69a6.14 6.14 0 0 1 1.81 4.38v.09a6.242 6.242 0 0 1-1.94 4.42l-2.55 2.41zm19.31-185.26c-.48.37-.96.75-1.44 1.11-3.35 2.53-6.24 3.42-9.23 3.42-1.47 0-2.97-.22-4.55-.56-1.57-.34-4.08-1.57-6.22-3.71 2.47 6.92 9.06 11.87 16.82 11.87 9.47 0 17.2-7.37 17.82-16.68-5.66-1.3-9.34 1.55-13.2 4.55zM229.9 241.79c1.65 0 3.21-.64 4.38-1.81l5.69-5.69a6.2 6.2 0 0 0 1.81-4.47 6.242 6.242 0 0 0-1.94-4.42l-2.55-2.41-14.31 14.31 2.41 2.55a6.206 6.206 0 0 0 4.42 1.94h.09zm44.28 0c1.66-.02 3.27-.73 4.42-1.94l2.41-2.55-14.31-14.31-2.55 2.41a6.206 6.206 0 0 0-1.94 4.42v.09c0 1.65.64 3.21 1.81 4.38l5.69 5.69c1.18 1.17 2.82 1.84 4.47 1.81zm-7.48 39.22 14.31-14.31-2.41-2.55a6.206 6.206 0 0 0-4.42-1.94h-.09c-1.65 0-3.21.64-4.38 1.81l-5.69 5.69a6.2 6.2 0 0 0-1.81 4.47c.02 1.66.73 3.27 1.94 4.42l2.55 2.41zm108.54-139.29-26.44-26.44c-.79 1.74-1.45 3.45-1.96 5.11l24.87 24.87 3.53-3.54zM242.1 96.48c4.16.9 7.02.8 11.08-2.27.47-.35.93-.71 1.4-1.08 3.8-2.96 8.41-6.51 15.15-5.33-1.08-8.84-8.6-15.69-17.73-15.69-7.78 0-14.38 4.98-16.84 11.92-.85 2.55-.69 4.95.48 7.16 1.61 3.01 4.81 4.94 6.46 5.29zm-111.77 62.5c3.19.19 5.43-.01 7.26-.19l7.67-7.67-3.54-3.54-11.39 11.4zm-15.05-3.78c1.74.79 3.45 1.45 5.11 1.96l24.87-24.87-3.54-3.54-26.44 26.45zm288.2-41.72-25.76-25.75c-1.58.65-3.17 1.43-4.76 2.31l26.98 26.98 3.54-3.54zm4.52 121.7c-6.92 2.47-11.87 9.06-11.87 16.82 0 9.47 7.37 17.2 16.68 17.82 1.3-5.67-1.55-9.35-4.56-13.21-.37-.48-.75-.96-1.11-1.44-2.53-3.35-3.42-6.24-3.42-9.23 0-1.47.22-2.97.56-4.55.34-1.57 1.57-4.07 3.72-6.21zm-13.93-93.46-37.86-37.86a51.183 51.183 0 0 0-3.11 3.96l37.43 37.43 3.54-3.53zm-37.65 0-11.4-11.4c-.19 3.19.01 5.43.19 7.26l7.67 7.67 3.54-3.53zm47.06-9.41-37.57-37.57c-1.29 1-2.57 2.07-3.85 3.22l37.88 37.88 3.54-3.53zM107.83 150.9l37.43-37.43-3.54-3.54-37.86 37.86c1.33 1.14 2.65 2.18 3.97 3.11zM431.88 252c0-7.78-4.98-14.38-11.92-16.84-2.55-.85-4.95-.69-7.16.48-3.01 1.61-4.93 4.8-5.29 6.45-.9 4.16-.8 7.02 2.27 11.08.35.47.71.93 1.08 1.4 2.96 3.8 6.51 8.41 5.33 15.15 8.84-1.07 15.69-8.59 15.69-17.72zm-28.4-157.34-9.42-9.42s-2.97-.5-7.07 0l12.95 12.95 3.54-3.53zM277.42 226.64l-7.03-7.03 35.38-33.42c12.45-12.49 16.61-28.55 21.02-45.55 2.53-9.75 5.1-19.68 9.38-28.99 2.7-6.49 6.97-13.33 13.6-19.96 26.77-26.77 54.47-23.03 70.05-7.46 15.58 15.58 19.31 43.28-7.46 70.05-6.63 6.63-13.47 10.9-19.96 13.6-9.31 4.28-19.24 6.85-28.99 9.38-17 4.41-33.06 8.57-45.55 21.02l-33.42 35.38-7.02-7.02zm62.52-93.65c.04 11.89 4.51 20.64 7.49 23.64 2.99 2.98 11.75 7.45 23.64 7.49 5.09.02 11.56-.8 18.51-3.74 6.2-2.91 11.98-6.61 17.12-11.75 12.61-12.61 17.34-24.7 17.34-35.07 0-9.72-4.16-17.94-9.88-23.66-5.72-5.72-13.94-9.88-23.66-9.88-10.37 0-22.46 4.73-35.07 17.34-5.14 5.14-8.85 10.92-11.75 17.12a46.982 46.982 0 0 0-3.74 18.51zm-20.52 49.02 1.31 1.31 1.31 1.31c11.01-7.31 23.47-10.95 35.78-14.18-7.26-1.86-12.93-5.01-16.04-8.14l-.02-.02-.02-.02c-3.14-3.11-6.29-8.78-8.14-16.04-3.22 12.32-6.87 24.77-14.18 35.78zm92.88 167.76c26.77 26.77 23.03 54.47 7.46 70.05-15.58 15.58-43.28 19.31-70.05-7.46-6.63-6.63-10.9-13.47-13.6-19.96-4.28-9.31-6.85-19.24-9.38-28.99-4.41-17-8.57-33.06-21.02-45.55l-35.38-33.42 7.03-7.03 7.03-7.03 33.42 35.38c12.49 12.45 28.55 16.61 45.55 21.02 9.75 2.53 19.68 5.1 28.99 9.38 6.48 2.71 13.32 6.98 19.95 13.61zm-70.61-7.98c.01-.01.02-.01.02-.02l.02-.02c3.11-3.14 8.78-6.29 16.04-8.14-12.32-3.23-24.77-6.87-35.78-14.18l-1.31 1.31-1.31 1.31c7.31 11.01 10.95 23.47 14.18 35.78 1.85-7.26 5-12.93 8.14-16.04zm82.29 48.71c0-10.37-4.73-22.46-17.34-35.07-5.14-5.14-10.92-8.85-17.12-11.75a47.162 47.162 0 0 0-18.51-3.74c-11.89.04-20.64 4.51-23.64 7.49-2.98 2.99-7.45 11.75-7.49 23.64-.02 5.09.8 11.56 3.74 18.51 2.91 6.2 6.61 11.98 11.75 17.12 12.61 12.61 24.7 17.34 35.07 17.34 9.72 0 17.94-4.16 23.66-9.88 5.73-5.72 9.88-13.94 9.88-23.66zM261.9 407.52c-4.16-.9-7.02-.8-11.08 2.27-.47.35-.93.71-1.4 1.08-3.8 2.96-8.41 6.51-15.15 5.33 1.08 8.84 8.6 15.69 17.73 15.69 7.78 0 14.38-4.98 16.84-11.92.85-2.55.69-4.95-.48-7.16-1.61-3.01-4.81-4.94-6.46-5.29zm111.77-62.5c-3.19-.19-5.43.01-7.26.19l-7.67 7.67 3.54 3.54 11.39-11.4zm-126.28 63.23c.48-.37.96-.75 1.44-1.11 3.35-2.53 6.24-3.42 9.23-3.42 1.47 0 2.97.22 4.55.56 1.57.34 4.08 1.57 6.22 3.71-2.47-6.92-9.06-11.87-16.82-11.87-9.47 0-17.2 7.37-17.82 16.68 5.66 1.3 9.34-1.55 13.2-4.55zm141.33-59.45c-1.74-.79-3.45-1.45-5.11-1.96l-24.87 24.87 3.54 3.54 26.44-26.45zm-162.14-71.44 7.03 7.03-35.38 33.42c-12.45 12.49-16.61 28.55-21.02 45.55-2.53 9.75-5.1 19.68-9.38 28.99-2.7 6.49-6.97 13.33-13.6 19.96-26.77 26.77-54.47 23.03-70.05 7.46-15.58-15.58-19.31-43.28 7.46-70.05 6.63-6.63 13.47-10.9 19.96-13.6 9.31-4.28 19.24-6.85 28.99-9.38 17-4.41 33.06-8.57 45.55-21.02l33.42-35.38 7.02 7.02zm-62.52 93.65c-.04-11.89-4.51-20.64-7.49-23.64-2.99-2.98-11.75-7.45-23.64-7.49-5.09-.02-11.56.8-18.51 3.74-6.2 2.91-11.98 6.61-17.12 11.75-12.61 12.61-17.34 24.7-17.34 35.07 0 9.72 4.16 17.94 9.88 23.66 5.72 5.72 13.94 9.88 23.66 9.88 10.37 0 22.46-4.73 35.07-17.34 5.14-5.14 8.85-10.92 11.75-17.12a46.982 46.982 0 0 0 3.74-18.51zm20.52-49.02-1.31-1.31-1.31-1.31c-11.01 7.31-23.47 10.95-35.78 14.18 7.26 1.86 12.93 5.01 16.04 8.14l.02.02.02.02c3.14 3.11 6.29 8.78 8.14 16.04 3.22-12.32 6.87-24.77 14.18-35.78zm205.94 81.49 25.75-25.76c-.65-1.58-1.43-3.17-2.31-4.76l-26.98 26.98 3.54 3.54zm5.65-50.38-37.43 37.43 3.54 3.54 37.86-37.86a53.277 53.277 0 0 0-3.97-3.11zm-28.02 46.85 3.54 3.54 37.57-37.57c-1-1.29-2.07-2.57-3.22-3.85l-37.89 37.88zm-220.57-37.67 11.4 11.4c.19-3.19-.01-5.43-.19-7.26l-7.67-7.67-3.54 3.53zM94.66 100.52l-9.42 9.42s-.5 2.97 0 7.07l12.95-12.95-3.53-3.54zm314.68 302.96 9.42-9.42s.5-2.97 0-7.07l-12.95 12.95 3.53 3.54zM91.7 154.23c-26.77-26.77-23.03-54.47-7.46-70.05 15.58-15.58 43.28-19.31 70.05 7.46 6.63 6.63 10.9 13.47 13.6 19.96 4.28 9.31 6.85 19.24 9.38 28.99 4.41 17 8.57 33.06 21.02 45.55l35.38 33.42-7.03 7.03-7.03 7.03-33.42-35.38c-12.49-12.45-28.55-16.61-45.55-21.02-9.75-2.53-19.68-5.1-28.99-9.38-6.48-2.71-13.32-6.98-19.95-13.61zm70.61 7.98c-.01.01-.02.01-.02.02l-.02.02c-3.11 3.14-8.78 6.29-16.04 8.14 12.32 3.23 24.77 6.87 35.78 14.18l1.31-1.31 1.31-1.31c-7.31-11.01-10.95-23.47-14.18-35.78-1.85 7.26-5 12.93-8.14 16.04zM80.02 113.5c0 10.37 4.73 22.46 17.34 35.07 5.14 5.14 10.92 8.85 17.12 11.75a47.162 47.162 0 0 0 18.51 3.74c11.89-.04 20.64-4.51 23.64-7.49 2.98-2.99 7.45-11.75 7.49-23.64.02-5.09-.8-11.56-3.74-18.51-2.91-6.2-6.61-11.98-11.75-17.12-12.61-12.61-24.7-17.34-35.07-17.34-9.72 0-17.94 4.16-23.66 9.88-5.73 5.72-9.88 13.94-9.88 23.66zm48.74 248.78 26.44 26.44c.79-1.74 1.45-3.45 1.96-5.11l-24.87-24.87-3.53 3.54zM107.88 252c0-9.47-7.37-17.2-16.68-17.82-1.3 5.67 1.55 9.35 4.56 13.21.37.48.75.96 1.11 1.44 2.53 3.35 3.42 6.24 3.42 9.23 0 1.47-.22 2.97-.56 4.55-.34 1.57-1.57 4.08-3.71 6.22 6.9-2.48 11.86-9.07 11.86-16.83zm5.6-151.48-25.75 25.76c.65 1.58 1.43 3.17 2.31 4.76l26.98-26.98-3.54-3.54zm22.37 3.53-3.54-3.54-37.57 37.57c1 1.29 2.07 2.57 3.22 3.85l37.89-37.88zM72.12 252c0 7.78 4.98 14.38 11.92 16.84 2.55.85 4.95.69 7.16-.48 3.01-1.61 4.93-4.8 5.29-6.45.9-4.16.8-7.02-2.27-11.08-.35-.47-.71-.93-1.08-1.4-2.96-3.8-6.51-8.41-5.33-15.15-8.84 1.07-15.69 8.59-15.69 17.72zm28.4 119.69 37.57 37.57c1.29-1 2.57-2.07 3.85-3.22l-37.88-37.88-3.54 3.53zm9.41-9.41 37.86 37.86c1.14-1.32 2.18-2.64 3.11-3.96l-37.43-37.43-3.54 3.53zm-9.41 28.24 25.76 25.75c1.58-.65 3.17-1.43 4.76-2.31l-26.98-26.98-3.54 3.54zm0 18.82 9.42 9.42s2.97.5 7.07 0l-12.95-12.95-3.54 3.53z"
       id="path5"
       inkscape:connector-curvature="0" />
  </g>
</svg>
