<?xml version="1.0" encoding="UTF-8" standalone="no"?>
<!-- Created with Inkscape (http://www.inkscape.org/) -->

<svg
   xmlns:dc="http://purl.org/dc/elements/1.1/"
   xmlns:cc="http://creativecommons.org/ns#"
   xmlns:rdf="http://www.w3.org/1999/02/22-rdf-syntax-ns#"
   xmlns:svg="http://www.w3.org/2000/svg"
   xmlns="http://www.w3.org/2000/svg"
   xmlns:sodipodi="http://sodipodi.sourceforge.net/DTD/sodipodi-0.dtd"
   xmlns:inkscape="http://www.inkscape.org/namespaces/inkscape"
   width="360.01001mm"
   height="360mm"
   viewBox="0 0 360.01001 360"
   version="1.1"
   id="svg8"
   inkscape:version="0.92.4 (5da689c313, 2019-01-14)"
   sodipodi:docname="dessin.svg">
  <defs
     id="defs2" />
  <sodipodi:namedview
     id="base"
     pagecolor="#ffffff"
     bordercolor="#666666"
     borderopacity="1.0"
     inkscape:pageopacity="0.0"
     inkscape:pageshadow="2"
     inkscape:zoom="0.35"
     inkscape:cx="-1132.126"
     inkscape:cy="1070.2362"
     inkscape:document-units="mm"
     inkscape:current-layer="layer1"
     showgrid="false"
     inkscape:window-width="1920"
     inkscape:window-height="1001"
     inkscape:window-x="-9"
     inkscape:window-y="-9"
     inkscape:window-maximized="1"
     fit-margin-top="0"
     fit-margin-left="0"
     fit-margin-right="0"
     fit-margin-bottom="0" />
  <metadata
     id="metadata5">
    <rdf:RDF>
      <cc:Work
         rdf:about="">
        <dc:format>image/svg+xml</dc:format>
        <dc:type
           rdf:resource="http://purl.org/dc/dcmitype/StillImage" />
        <dc:title></dc:title>
      </cc:Work>
    </rdf:RDF>
  </metadata>
  <g
     inkscape:label="Calque 1"
     inkscape:groupmode="layer"
     id="layer1"
     transform="translate(-72,-72)">
    <path
       d="M118.52 372.75c-35.14-38.78-50.38-89.17-45.7-138.02l4.98.48c-4.54 47.42 10.22 96.33 44.26 134l-3.54 3.54zm154.64 19.12c.24-.85.91-1.5 1.77-1.73 2.38-.63 5.32-2.13 5.74-3.26.03-.08.11-.3-.28-.86-2.66-3.82-14.88-17.46-27.98-30.12-22.31-21.57-30.2-24.39-32.56-24.6-.09-.01-.17-.01-.25-.01.07.61.28 1.2.63 1.74 1.61 2.46 4.73 7.8 9.94 18.83 1.44 3.05 2.86 6.79 4.21 10.88h6.25a2.5 2.5 0 0 1 0 5h-4.67c.44 1.45.86 2.92 1.28 4.4h7.4a2.5 2.5 0 0 1 0 5h-6.04c.39 1.47.77 2.94 1.13 4.4h8.92a2.5 2.5 0 0 1 0 5h-7.7c.36 1.5.7 2.97 1.03 4.4h10.68a2.5 2.5 0 0 1 0 5h-9.57c1.18 5.42 2.07 9.87 2.55 12.36.23 1.17 1.59 1.7 2.56 1.01 2.97-2.12 3.95-5.16 3.95-5.16s11.52-2.47 19.38 6.37c7.86 8.83 2.14 20.64 2.14 20.64.85.57 1.83.85 2.8.85a5.1 5.1 0 0 0 3.62-1.49c4.69-4.63 9.05-7.6 11.74-9.21-.65-3.01-3.72-11.74-18.1-27.04a2.53 2.53 0 0 1-.57-2.4zm-1.39-211.51c4.83 1.21 8.21-.75 10.38-2.96-16.52-4.2-58.22-50.23-62.63-56.57-1.55-2.23-1.33-4.19-.87-5.45.87-2.36 3.27-3.98 5.43-5-11.63-12.92-15.37-21.24-16.56-25.58-2.34.75-6.46 2.07-10.17 3.18-1.86.55-3.35 1.99-3.9 3.85-4.46 15.11 20.45 36.58 34.75 51.95 20.32 20.09 34.08 34.21 43.57 36.58zm-40.93-68.23c-.24.85-.91 1.5-1.77 1.73-2.38.63-5.32 2.13-5.74 3.26-.03.08-.11.3.28.86 2.66 3.82 14.89 17.46 27.98 30.12 22.3 21.57 30.2 24.39 32.56 24.6.09.01.17.01.25.01a4.03 4.03 0 0 0-.63-1.74c-1.61-2.46-4.73-7.8-9.94-18.83-1.44-3.05-2.86-6.79-4.21-10.88h-6.25a2.5 2.5 0 0 1 0-5h4.67c-.44-1.45-.86-2.92-1.28-4.4h-7.4a2.5 2.5 0 0 1 0-5h6.04c-.39-1.47-.77-2.94-1.13-4.4h-8.92a2.5 2.5 0 0 1 0-5h7.7c-.36-1.5-.7-2.97-1.03-4.4h-10.69a2.5 2.5 0 0 1 0-5h9.57a549.42 549.42 0 0 1-2.55-12.36c-.23-1.17-1.59-1.7-2.56-1.01-2.97 2.12-3.95 5.16-3.95 5.16s-11.52 2.47-19.38-6.37-2.14-20.64-2.14-20.64c-.85-.57-1.83-.85-2.8-.85a5.1 5.1 0 0 0-3.62 1.49c-4.69 4.63-9.05 7.6-11.74 9.21.65 3.01 3.72 11.74 18.1 27.04.6.64.82 1.55.58 2.4zm142.02 255.03 25.97 26.01-5.66 5.66-26.01-26.01c-14.02 13.36-30.34 24.33-48.31 32.21-.37-2.57-1.14-5.16-2.23-7.76 16.67-7.44 31.83-17.68 44.89-30.1l-33.19-33.19c-12.6 11.74-27.24 20.04-42.74 24.9-1.36-1.4-2.66-2.76-3.87-4.06 15.62-4.5 30.42-12.62 43.07-24.38l-67.05-67.05a12.772 12.772 0 0 1-11.46 0l-67.05 67.05c12.78 11.87 27.75 20.04 43.55 24.51.05.11.1.21.15.32.75 1.59 1.52 3.45 2.28 5.5-17.99-4.41-35.1-13.34-49.53-26.79l-33.18 33.18c25.33 24.1 58.57 39.96 95.38 43.21.18 1.16.96 4.79 3.87 8.31-40.55-2.47-77.24-19.48-104.91-45.86l-26.01 26.01-5.66-5.66L240.6 257.73a12.772 12.772 0 0 1 0-11.46l-13.52-13.52c-7.61 9.83-8.63 23.11-3.02 33.84l-13.92 14.52c-10.1-14.49-11.84-33.03-5.17-48.9l-4.61-1.94c-7.44 17.7-5.39 38.44 6.17 54.45l-6.42 6.42c-12.12-16.02-15.86-36.37-11.16-55.05l-4.85-1.22c-5.11 20.34-.98 42.52 12.42 59.86l-6.39 6.39c-13.08-16.43-18.69-36.85-16.79-56.7l-4.98-.48c-2.04 21.29 4.05 43.19 18.21 60.74l-6.41 6.41c-22.38-27.14-27.02-64-13.91-95.17l-4.61-1.94c-13.88 32.99-8.88 72.02 14.97 100.66l-6.37 6.37c-30.11-35.59-33.31-86.17-9.52-124.92l-4.26-2.61c-24.97 40.67-21.53 93.81 10.24 131.08l-6.39 6.39c-28.54-33.08-36.26-77.91-23.1-117.34l-4.74-1.59c-13.74 41.17-5.62 88 24.3 122.47l-6.38 6.38c-30.04-34.28-39.83-80.11-29.32-121.91l-4.85-1.22c-10.93 43.45-.7 91.1 30.62 126.68l-6.37 6.37c-38.89-43.83-47.53-105.07-25.84-156.61l-4.61-1.94c-22.45 53.36-13.46 116.78 26.91 162.09l-9.2 9.2c-58.05-64.56-56.88-163.44 3.39-226.68l-25.97-26.01 5.66-5.66 26.01 26.01c14.02-13.36 30.34-24.32 48.31-32.21.37 2.57 1.14 5.16 2.23 7.76-16.67 7.44-31.83 17.68-44.89 30.1l33.19 33.19c12.6-11.74 27.24-20.04 42.74-24.89 1.36 1.4 2.66 2.76 3.87 4.06-15.62 4.5-30.42 12.62-43.07 24.37l67.05 67.05c3.59-1.81 7.86-1.81 11.46 0l67.05-67.05c-12.78-11.87-27.75-20.04-43.55-24.51-.05-.11-.1-.21-.16-.33-.75-1.59-1.52-3.45-2.28-5.49 17.99 4.41 35.1 13.34 49.53 26.79l33.18-33.18c-25.33-24.1-58.57-39.96-95.38-43.21-.18-1.16-.96-4.79-3.87-8.31 40.55 2.47 77.24 19.48 104.91 45.86l26.01-26.01 5.66 5.66-135.43 135.43c1.81 3.59 1.81 7.86 0 11.46l13.52 13.52c7.6-9.81 8.63-23.05 3.05-33.77l13.88-14.59c10.1 14.49 11.84 33.03 5.16 48.9l4.61 1.94c7.44-17.7 5.39-38.44-6.17-54.45l6.42-6.42c12.12 16.02 15.86 36.37 11.16 55.05l4.85 1.22c5.11-20.34.98-42.52-12.42-59.86l6.39-6.39c13.08 16.43 18.69 36.85 16.79 56.7l4.98.48c2.04-21.29-4.05-43.19-18.21-60.73l6.41-6.41c22.38 27.14 27.02 64 13.91 95.17l4.61 1.94c13.88-32.99 8.88-72.02-14.97-100.66l6.37-6.37c30.11 35.59 33.31 86.17 9.52 124.92l4.26 2.61c24.97-40.67 21.53-93.81-10.24-131.08l6.39-6.39c28.54 33.08 36.26 77.91 23.1 117.34l4.74 1.59c13.74-41.17 5.62-88-24.3-122.47l6.38-6.38c30.04 34.28 39.83 80.11 29.32 121.91l4.85 1.22c10.93-43.45.7-91.1-30.62-126.68l6.37-6.37c38.89 43.83 47.53 105.07 25.84 156.61l4.61 1.94c22.45-53.36 13.46-116.78-26.91-162.09l9.2-9.2c58.07 64.56 56.9 163.44-3.37 226.68zM259.75 252a7.75 7.75 0 1 0-15.5 0 7.75 7.75 0 0 0 15.5 0zm125.73-120.75-3.54 3.54c34.04 37.68 48.8 86.59 44.26 134l4.98.48c4.68-48.85-10.56-99.24-45.7-138.02zM232.23 323.64c-4.83-1.21-8.21.75-10.38 2.96 16.53 4.21 58.22 50.23 62.63 56.57 1.55 2.23 1.33 4.19.87 5.45-.87 2.36-3.27 3.98-5.43 5 11.63 12.92 15.37 21.24 16.56 25.58 2.34-.75 6.46-2.07 10.17-3.18 1.86-.56 3.35-1.99 3.9-3.85 4.46-15.11-20.45-36.58-34.75-51.95-20.32-20.09-34.08-34.21-43.57-36.58z"
       id="path5"
       inkscape:connector-curvature="0" />
  </g>
</svg>
