<?xml version="1.0" encoding="UTF-8" standalone="no"?>
<!-- Created with Inkscape (http://www.inkscape.org/) -->

<svg
   xmlns:dc="http://purl.org/dc/elements/1.1/"
   xmlns:cc="http://creativecommons.org/ns#"
   xmlns:rdf="http://www.w3.org/1999/02/22-rdf-syntax-ns#"
   xmlns:svg="http://www.w3.org/2000/svg"
   xmlns="http://www.w3.org/2000/svg"
   xmlns:sodipodi="http://sodipodi.sourceforge.net/DTD/sodipodi-0.dtd"
   xmlns:inkscape="http://www.inkscape.org/namespaces/inkscape"
   width="360.01001mm"
   height="360mm"
   viewBox="0 0 360.01001 360"
   version="1.1"
   id="svg8"
   inkscape:version="0.92.4 (5da689c313, 2019-01-14)"
   sodipodi:docname="dessin.svg">
  <defs
     id="defs2" />
  <sodipodi:namedview
     id="base"
     pagecolor="#ffffff"
     bordercolor="#666666"
     borderopacity="1.0"
     inkscape:pageopacity="0.0"
     inkscape:pageshadow="2"
     inkscape:zoom="0.35"
     inkscape:cx="-1132.126"
     inkscape:cy="1070.2362"
     inkscape:document-units="mm"
     inkscape:current-layer="layer1"
     showgrid="false"
     inkscape:window-width="1920"
     inkscape:window-height="1001"
     inkscape:window-x="-9"
     inkscape:window-y="-9"
     inkscape:window-maximized="1"
     fit-margin-top="0"
     fit-margin-left="0"
     fit-margin-right="0"
     fit-margin-bottom="0" />
  <metadata
     id="metadata5">
    <rdf:RDF>
      <cc:Work
         rdf:about="">
        <dc:format>image/svg+xml</dc:format>
        <dc:type
           rdf:resource="http://purl.org/dc/dcmitype/StillImage" />
        <dc:title></dc:title>
      </cc:Work>
    </rdf:RDF>
  </metadata>
  <g
     inkscape:label="Calque 1"
     inkscape:groupmode="layer"
     id="layer1"
     transform="translate(-72,-72)">
    <path
       d="m432 252-6.78-1.72c-6.21-1.58-9.3-5.61-11.4-14.86l-.17-.77c-2.91-11.71-11.05-19.56-23.53-22.7-9.22-2.32-16.37-9.52-18.68-18.81l-.76-3.04c-2.56-10.29-10.52-18.23-20.78-20.71-2.39-.58-4.65-1.6-6.66-2.98l55.59-55.59-5.66-5.66L252 246.34 110.83 105.17l-5.66 5.66 53.97 53.97L72 252l6.78 1.72c6.21 1.58 9.3 5.61 11.4 14.86l.17.76c2.91 11.71 11.05 19.56 23.53 22.7 9.22 2.32 16.37 9.52 18.68 18.81l.76 3.04c2.56 10.29 10.52 18.23 20.78 20.71 2.39.58 4.65 1.6 6.66 2.98l-55.59 55.59 5.66 5.66L252 257.66l141.17 141.17 5.66-5.66-53.97-53.97L432 252zm-265.52 79.86a28.106 28.106 0 0 0-10.51-5.03c-7.35-1.78-13.06-7.47-14.89-14.86l-.76-3.04c-3.02-12.15-12.4-21.59-24.49-24.63-9.56-2.4-15.51-8.06-17.71-16.82l-.14-.63c-1.57-6.93-4.19-14.24-11.16-18.4l77.98-77.98 17.77 17.77-66.49 66.49-4.27-4.27-3.54 3.54 12.07 12.07 3.54-3.54-4.27-4.27 66.49-66.49 17.7 17.7-66.49 66.49-4.27-4.27-3.54 3.54 12.07 12.07 3.54-3.54-4.27-4.27 66.5-66.49 17.7 17.7-66.49 66.49-4.27-4.27-3.54 3.54 12.07 12.07 3.54-3.54-4.27-4.27 66.49-66.49L246.34 252l-79.86 79.86zm154.95-16.09 66.49-66.49 4.27 4.27 3.54-3.54-12.07-12.07-3.54 3.54 4.27 4.27-66.49 66.49-17.7-17.7 66.49-66.49 4.27 4.27 3.54-3.54-12.07-12.07-3.54 3.54 4.27 4.27-66.5 66.48-17.7-17.7 66.49-66.49 4.27 4.27 3.54-3.54-12.07-12.07-3.54 3.54 4.27 4.27-66.49 66.49L257.66 252l79.86-79.86c3.11 2.38 6.68 4.11 10.51 5.03 7.35 1.78 13.06 7.47 14.89 14.86l.76 3.04c3.02 12.15 12.4 21.59 24.49 24.63 9.55 2.4 15.51 8.06 17.71 16.82l.14.63c1.57 6.93 4.19 14.24 11.16 18.4l-77.98 77.98-17.77-17.76zM276.52 146.4c-1.58 1.58-1.16 2.76-.71 3.51l.17.25c3.54 5.91-4.58 15.11-14.02 20.77-.51.31-1.03.6-1.56.89V148.4c4.17-1.37 8.17-1.92 11.2-1.2.3-1.28.99-2.52 2.1-3.63 1.11-1.11 2.35-1.82 3.64-2.12-1.24-5.31 1.36-13.59 5.52-20.53 2.25-3.75 5.05-7.29 7.99-9.97v32.7c-3.77 2.81-7.58 3.98-10.55 2.2l-.25-.17c-.77-.44-1.95-.86-3.53.72zm-73.88-23.33c-2.07-12.94 2.12-23.57 14.56-36.01 12.44-12.44 23.07-16.63 36.01-14.56 23.64 3.79 43.93 24.85 51.88 35.63l-.02.02c3.89 4.57 1.11 15.13-4 23.67a48.468 48.468 0 0 1-5.22 7.14v-31.62c-12.68-3.14-29.51 2.57-42.65 15.71-13.14 13.14-18.85 29.97-15.71 42.65 2.37-4.61 7.72-9.48 13.58-12.99 1.41-.84 2.87-1.61 4.35-2.31v23.79c-6.83 2.79-13.69 3.67-17.13.75-10.8-7.94-31.87-28.23-35.65-51.87zm98.75 257.86c2.07 12.94-2.12 23.57-14.56 36.01-12.44 12.44-23.07 16.63-36.01 14.56-23.64-3.79-43.93-24.85-51.88-35.63l.02-.02c-3.89-4.57-1.11-15.13 4-23.67 1.52-2.54 3.31-4.98 5.22-7.14v31.62c12.68 3.14 29.51-2.57 42.65-15.71 13.14-13.14 18.85-29.97 15.71-42.65-2.37 4.61-7.72 9.48-13.58 12.99-1.41.84-2.87 1.61-4.35 2.31v-23.79c6.83-2.79 13.69-3.67 17.13-.75 10.79 7.94 31.86 28.23 35.65 51.87zM227.5 357.6c1.58-1.58 1.16-2.76.71-3.51l-.17-.25c-3.54-5.91 4.58-15.11 14.02-20.77.51-.31 1.03-.6 1.56-.89v23.41c-4.17 1.37-8.17 1.92-11.2 1.2-.3 1.28-.99 2.52-2.1 3.63-1.11 1.11-2.35 1.82-3.64 2.12 1.24 5.31-1.36 13.59-5.52 20.53-2.25 3.75-5.05 7.29-7.99 9.97v-32.7c3.77-2.81 7.58-3.98 10.55-2.2l.25.17c.77.45 1.95.87 3.53-.71z"
       id="path5"
       inkscape:connector-curvature="0" />
  </g>
</svg>
